<?xml version="1.0" standalone="no"?><!DOCTYPE svg PUBLIC "-//W3C//DTD SVG 1.1//EN" "http://www.w3.org/Graphics/SVG/1.1/DTD/svg11.dtd"><svg t="1654412668495" class="icon" viewBox="0 0 1048 1024" version="1.1" xmlns="http://www.w3.org/2000/svg" p-id="5008" xmlns:xlink="http://www.w3.org/1999/xlink" width="122.8125" height="120"><defs><style type="text/css">@font-face { font-family: feedback-iconfont; src: url("//at.alicdn.com/t/font_1031158_u69w8yhxdu.woff2?t=1630033759944") format("woff2"), url("//at.alicdn.com/t/font_1031158_u69w8yhxdu.woff?t=1630033759944") format("woff"), url("//at.alicdn.com/t/font_1031158_u69w8yhxdu.ttf?t=1630033759944") format("truetype"); }
</style></defs><path d="M523.99042 870.258583a358.341769 358.341769 0 1 1 358.34177-358.341769 358.341769 358.341769 0 0 1-358.34177 358.341769z m0-767.87522a51.191681 51.191681 0 1 1 51.191682-51.191682 51.191681 51.191681 0 0 1-51.191682 51.191682z m339.400848 163.81338a51.191681 51.191681 0 1 1 71.668353 7.678752 51.191681 51.191681 0 0 1-71.668353-8.190669z m81.90669 366.020522a51.191681 51.191681 0 0 1 61.430017-37.881845 51.191681 51.191681 0 0 1 40.953345 60.918101 51.191681 51.191681 0 0 1-60.9181 38.393761 51.191681 51.191681 0 0 1-41.465262-61.430017z m-234.969818 294.864084a51.191681 51.191681 0 0 1 45.04868 91.63311 51.191681 51.191681 0 0 1-66.037269-23.548174 51.191681 51.191681 0 0 1 22.52434-68.084936z m-375.746941 0a51.191681 51.191681 0 0 1 23.036257 68.084936 51.191681 51.191681 0 1 1-23.036257-68.084936z m-233.434067-294.864084a51.191681 51.191681 0 0 1-38.393761 61.430017 51.191681 51.191681 0 0 1-61.430017-38.393761 51.191681 51.191681 0 0 1 99.823778-23.036256zM184.589573 265.684826a51.191681 51.191681 0 0 1-79.347106-63.989601A51.191681 51.191681 0 0 1 184.589573 265.684826z" fill="#FFCE20" p-id="5009"></path></svg>